<svg width="38" height="33" viewBox="0 0 38 33" fill="none" xmlns="http://www.w3.org/2000/svg">
<path d="M5.4898 6.04609C5.4898 6.04609 6.40477 5.13112 8.2347 3.30119C10.0646 1.47126 13.5514 0.556286 18.695 0.556286C23.8386 0.556286 28.2403 2.38622 31.9002 6.04609C35.5601 9.70596 37.39 14.1077 37.39 19.2513C37.39 24.3949 35.5601 28.7966 31.9002 32.4565C28.2403 36.1164 23.8386 37.9463 18.695 37.9463C13.5514 37.9463 9.14967 36.1164 5.4898 32.4565C1.82993 28.7966 0 24.3949 0 19.2513C0 14.1077 1.82993 9.70596 5.4898 6.04609ZM7.38156 30.5647C7.38156 30.5647 8.1667 31.3499 9.73698 32.9202C11.3073 34.4904 14.2933 35.2756 18.695 35.2756C23.0967 35.2756 26.8679 33.7053 30.0084 30.5647C33.149 27.4242 34.7193 23.653 34.7193 19.2513C34.7193 14.8496 33.149 11.0784 30.0084 7.93785C26.8679 4.79728 23.0967 3.227 18.695 3.227C14.2933 3.227 10.5221 4.79728 7.38156 7.93785C4.241 11.0784 2.67071 14.8496 2.67071 19.2513C2.67071 23.653 4.241 27.4242 7.38156 30.5647ZM18.695 19.2513V8.56843H21.3657V21.922H10.6829V19.2513H18.695Z" fill="#303030"/>
</svg>
