<svg width="23" height="23" viewBox="0 0 23 23" fill="none" xmlns="http://www.w3.org/2000/svg">
<path d="M22.1356 8.62872H22.0933L22.0669 8.6015H14.6319H14.5605L14.5373 8.53399L11.9745 1.07359L11.9713 1.06443L11.97 1.05483C11.9554 0.949509 11.9139 0.880976 11.852 0.836309C11.7872 0.789545 11.6874 0.759912 11.5406 0.759912C11.4567 0.759912 11.3898 0.784477 11.3345 0.831453C11.2774 0.879898 11.2262 0.957689 11.1859 1.07384L11.1858 1.07419L8.57008 8.53458L8.54662 8.6015H8.47571H0.998421C0.903612 8.6015 0.829602 8.62731 0.770326 8.67482C0.711884 8.72166 0.660762 8.79527 0.621464 8.90374C0.609511 9.06977 0.652883 9.22991 0.756368 9.38675L6.55792 14.1968L6.61093 14.2407L6.58879 14.3059L3.99948 21.9297L3.99948 21.9297L3.99927 21.9303C3.95981 22.0442 3.95504 22.1367 3.97504 22.2123C3.99475 22.2868 4.04119 22.355 4.12329 22.4165L4.1296 22.4213L4.13508 22.4269C4.21068 22.5048 4.28425 22.5402 4.35627 22.5467C4.42932 22.5532 4.51539 22.5313 4.61746 22.4666L4.61745 22.4665L4.61842 22.4659L11.488 18.2184L11.5406 18.1859L11.5932 18.2184L18.4575 22.4626C18.6134 22.5337 18.7081 22.5599 18.7537 22.5599C18.8224 22.5599 18.9038 22.525 18.999 22.4269L18.9985 22.4265L19.0071 22.4194C19.0819 22.3578 19.126 22.2906 19.1461 22.218C19.1663 22.1452 19.1646 22.0588 19.134 21.9553L16.519 14.3335L16.4964 14.2676L16.5502 14.2236L22.4376 9.40808C22.55 9.28986 22.5964 9.1337 22.5652 8.92468L22.565 8.92364C22.5504 8.81832 22.509 8.74979 22.447 8.70512C22.3822 8.65836 22.2824 8.62872 22.1356 8.62872Z" fill="#038D00" stroke="#038D00" stroke-width="0.2"/>
</svg>
