<svg width="23" height="23" viewBox="0 0 23 23" fill="none" xmlns="http://www.w3.org/2000/svg">
<path d="M21.8251 8.62872H21.7828L21.7564 8.6015H14.3214H14.25L14.2268 8.53399L11.6639 1.07359L11.6608 1.06443L11.6594 1.05483C11.6448 0.949509 11.6034 0.880976 11.5415 0.836309C11.4766 0.789545 11.3768 0.759912 11.2301 0.759912C11.1461 0.759912 11.0793 0.784477 11.0239 0.831453C10.9669 0.879898 10.9156 0.957689 10.8754 1.07384L10.8753 1.07419L8.25953 8.53458L8.23607 8.6015H8.16516H0.687874C0.593066 8.6015 0.519056 8.62731 0.459779 8.67482C0.401338 8.72166 0.350215 8.79527 0.310918 8.90374C0.298964 9.06977 0.342336 9.22991 0.445821 9.38675L6.24738 14.1968L6.30038 14.2407L6.27824 14.3059L3.68893 21.9297L3.68893 21.9297L3.68873 21.9303C3.64926 22.0442 3.64449 22.1367 3.66449 22.2123C3.6842 22.2868 3.73064 22.355 3.81274 22.4165L3.81905 22.4213L3.82454 22.4269C3.90013 22.5048 3.9737 22.5402 4.04573 22.5467C4.11878 22.5532 4.20484 22.5313 4.30691 22.4666L4.30691 22.4665L4.30788 22.4659L11.1775 18.2184L11.2301 18.1859L11.2827 18.2184L18.1469 22.4626C18.3029 22.5337 18.3975 22.5599 18.4431 22.5599C18.5118 22.5599 18.5933 22.525 18.6884 22.4269L18.688 22.4265L18.6966 22.4194C18.7713 22.3578 18.8154 22.2906 18.8356 22.218C18.8557 22.1452 18.8541 22.0588 18.8235 21.9553L16.2084 14.3335L16.1858 14.2676L16.2397 14.2236L22.127 9.40808C22.2395 9.28986 22.2858 9.1337 22.2546 8.92468L22.2545 8.92364C22.2399 8.81832 22.1984 8.74979 22.1365 8.70512C22.0717 8.65836 21.9719 8.62872 21.8251 8.62872Z" fill="#EBEBEB" stroke="#038D00" stroke-width="0.2"/>
</svg>
